<svg xmlns="http://www.w3.org/2000/svg" viewBox="0 0 123.6 135.05"><defs><style>.cls-1{fill:#fff;stroke:#90c640;stroke-linecap:round;stroke-miterlimit:10;stroke-width:8px;}.cls-2{fill:#90c640;}</style></defs><g id="Layer_2" data-name="Layer 2"><g id="Layer_1-2" data-name="Layer 1"><path class="cls-1" d="M80.06,4,80,18.36a57.8,57.8,0,1,1-36.3,0V4h-12"/><path class="cls-1" d="M91.94,4H80V18.36a57.8,57.8,0,1,1-36.3,0L43.53,4"/><path class="cls-2" d="M108.77,71.26a47,47,0,0,1-93.94,0,46.27,46.27,0,0,1,.39-6C31.13,75.38,42,75.47,49,73.65,61.4,70.45,65,60.47,78.14,57.06c11.4-3,22.32,1,29.68,4.71A47.88,47.88,0,0,1,108.77,71.26Z"/></g></g></svg>