<svg xmlns="http://www.w3.org/2000/svg" viewBox="0 0 117.74 128.61"><defs><style>.cls-1{fill:#fff;stroke:#90c640;stroke-linecap:round;stroke-miterlimit:10;stroke-width:8px;}.cls-2{fill:#90c640;}</style></defs><g id="Layer_2" data-name="Layer 2"><g id="Layer_1-2" data-name="Layer 1"><path class="cls-1" d="M76.21,4,76.1,17.63a54.87,54.87,0,1,1-34.46,0V4H30.25"/><path class="cls-1" d="M87.49,4H76.1V17.63a54.87,54.87,0,1,1-34.46,0L41.53,4"/><path class="cls-2" d="M105.84,68.64a47,47,0,0,1-93.94,0,44.58,44.58,0,0,1,.4-6C28.2,72.75,39.08,72.85,46.1,71,58.47,67.82,62,57.85,75.21,54.43c11.4-3,22.33,1,29.68,4.72A47.88,47.88,0,0,1,105.84,68.64Z"/></g></g></svg>