<svg id="Layer_1" data-name="Layer 1" xmlns="http://www.w3.org/2000/svg" viewBox="0 0 61.76 90.3"><defs><style>.cls-1{fill:#58595b;}.cls-2{fill:#8dc63f;}.cls-3{fill:#f1f2f2;}</style></defs><path class="cls-1" d="M27.24,90.3H18.58A9.89,9.89,0,0,1,8.37,80.09v-28L0,44.28V42.83l8.37-7.72V10.21A9.89,9.89,0,0,1,18.58,0h8.66V6C26.81,6,26,6,24.93,6s-2-.07-2.57-.07q-7,0-7,5.18V34.17a7.43,7.43,0,0,1-2.44,5.47q-2.53,1.95-5,3.94l5,3.93a7.42,7.42,0,0,1,2.44,5.43V79.29q0,5.13,7,5.13c.6,0,1.45,0,2.57-.08s1.88-.07,2.31-.07Z"/><path class="cls-1" d="M34.52,84.27c.43,0,1.21,0,2.32.07s2,.08,2.56.08q7,0,7-5.13V52.94a7.43,7.43,0,0,1,2.45-5.43l5-3.93q-2.49-2-5-3.94a7.44,7.44,0,0,1-2.45-5.47V11.06q0-5.19-7-5.18c-.6,0-1.45,0-2.56.07S35,6,34.52,6V0h8.67A9.89,9.89,0,0,1,53.4,10.21v24.9l8.36,7.72v1.45L53.4,52.05v28A9.89,9.89,0,0,1,43.19,90.3H34.52Z"/><path class="cls-2" d="M27.09,32.16h8.48A5.46,5.46,0,0,1,41,37.63v37a6,6,0,0,1-6,6H27.64a6,6,0,0,1-6-6v-37A5.46,5.46,0,0,1,27.09,32.16Z"/><circle class="cls-3" cx="28.17" cy="70.94" r="2.76"/><circle class="cls-3" cx="35.36" cy="56.39" r="3.18"/><circle class="cls-3" cx="29.44" cy="42.12" r="4.02"/><circle class="cls-2" cx="25.88" cy="25.8" r="3.55"/><circle class="cls-2" cx="35.36" cy="15.34" r="4.43"/></svg>